<svg xmlns="http://www.w3.org/2000/svg" viewBox="0 0 1600 520" preserveAspectRatio="xMidYMid slice"><defs><linearGradient id="sky" x1="0" y1="0" x2="0" y2="1"><stop stop-color="#86cfff"/><stop offset=".52" stop-color="#dff6d9"/><stop offset="1" stop-color="#9bd86f"/></linearGradient><linearGradient id="hill" x1="0" y1="0" x2="1" y2="1"><stop stop-color="#78bb62"/><stop offset="1" stop-color="#3f913f"/></linearGradient><linearGradient id="field" x1="0" y1="0" x2="1" y2="0"><stop stop-color="#2f7d32"/><stop offset=".48" stop-color="#68ad45"/><stop offset="1" stop-color="#286d35"/></linearGradient><radialGradient id="sun"><stop stop-color="#fffbd0"/><stop offset="1" stop-color="#fffbd0" stop-opacity="0"/></radialGradient><filter id="soft"><feGaussianBlur stdDeviation="10"/></filter></defs><rect width="1600" height="520" fill="url(#sky)"/><circle cx="1260" cy="112" r="155" fill="url(#sun)"/><g fill="#fff" opacity=".48" filter="url(#soft)"><ellipse cx="360" cy="115" rx="120" ry="28"/><ellipse cx="620" cy="85" rx="95" ry="22"/></g><path d="M0 275 Q210 175 420 260 T820 245 T1210 270 T1600 205 V520 H0Z" fill="#9bd278"/><path d="M0 330 Q230 220 480 330 T930 300 T1300 315 T1600 265 V520 H0Z" fill="url(#hill)"/><path d="M0 405 Q260 275 540 405 T1050 370 T1600 330 V520 H0Z" fill="url(#field)"/><path d="M-80 510 Q300 330 730 500 T1680 405" fill="none" stroke="#b9df72" stroke-width="24" opacity=".9"/><path d="M-60 515 Q330 370 750 505 T1660 435" fill="none" stroke="#e7f4b0" stroke-width="9" opacity=".85"/><g><path d="M175 405c-6-88 29-151 99-200 16 89-21 153-99 200Z" fill="#276d35"/><path d="M205 406c-2-67 35-119 92-151 3 70-27 123-92 151Z" fill="#3e8c40"/><path d="M1415 402c-4-92 31-154 102-207 16 91-21 156-102 207Z" fill="#276d35"/><path d="M1450 402c4-68 39-117 94-150 4 69-25 120-94 150Z" fill="#4c9843"/></g><g fill="#fff" opacity=".75"><circle cx="275" cy="155" r="4"/><circle cx="325" cy="125" r="3"/><circle cx="1015" cy="105" r="4"/><circle cx="1080" cy="145" r="3"/></g><g font-family="Arial, sans-serif" fill="#fff" text-anchor="middle"><text x="800" y="175" font-size="34" font-weight="700" opacity=".96">Sheikh Seeds</text><text x="800" y="212" font-size="18" font-weight="500" opacity=".9">স্বপ্নের বাগান, আপনার হাতেই 🌿</text></g></svg>